<svg width="21" height="21" viewBox="0 0 21 21" fill="none" xmlns="http://www.w3.org/2000/svg">
<path d="M1.75668 20.325C1.83971 20.335 1.92365 20.335 2.00668 20.325L6.17335 19.2833C6.35819 19.2394 6.52749 19.1457 6.66293 19.0125L19.465 6.16875C19.853 5.77841 20.0708 5.25039 20.0708 4.7C20.0708 4.14962 19.853 3.62159 19.465 3.23125L17.8192 1.575C17.6257 1.3813 17.3959 1.22764 17.143 1.1228C16.8901 1.01795 16.619 0.963989 16.3452 0.963989C16.0714 0.963989 15.8003 1.01795 15.5474 1.1228C15.2945 1.22764 15.0647 1.3813 14.8713 1.575L2.06918 14.3771C1.93458 14.5131 1.83767 14.6819 1.78793 14.8667L0.746263 19.0333C0.708823 19.1681 0.698914 19.3091 0.717126 19.4478C0.735337 19.5864 0.781298 19.7201 0.852264 19.8406C0.923231 19.9611 1.01775 20.0662 1.13018 20.1494C1.24262 20.2326 1.37066 20.2923 1.50668 20.325C1.58971 20.335 1.67365 20.335 1.75668 20.325ZM16.34 3.04375L17.9963 4.7L16.34 6.35625L14.6942 4.7L16.34 3.04375ZM3.74626 15.6479L13.215 6.16875L14.8713 7.825L5.3921 17.3042L3.19418 17.8458L3.74626 15.6479Z" fill="#6CE5D0"/>
</svg>
